<svg xmlns="http://www.w3.org/2000/svg" width="820" height="414" viewBox="0 0 820 414" font-family="Helvetica, Arial, sans-serif" role="img" aria-label="Matrice des risques avant et après traitement"><rect width="820" height="414" fill="#ffffff"/><text x="229.0" y="22" text-anchor="middle" font-weight="bold" font-size="14">Avant traitement</text><rect x="64" y="308" width="66" height="66" fill="#d4ecd0" stroke="#ffffff" stroke-width="2"/><rect x="64" y="242" width="66" height="66" fill="#d4ecd0" stroke="#ffffff" stroke-width="2"/><rect x="64" y="176" width="66" height="66" fill="#d4ecd0" stroke="#ffffff" stroke-width="2"/><rect x="64" y="110" width="66" height="66" fill="#d4ecd0" stroke="#ffffff" stroke-width="2"/><rect x="64" y="44" width="66" height="66" fill="#fbf0b2" stroke="#ffffff" stroke-width="2"/><rect x="130" y="308" width="66" height="66" fill="#d4ecd0" stroke="#ffffff" stroke-width="2"/><rect x="130" y="242" width="66" height="66" fill="#d4ecd0" stroke="#ffffff" stroke-width="2"/><rect x="130" y="176" width="66" height="66" fill="#fbf0b2" stroke="#ffffff" stroke-width="2"/><rect x="130" y="110" width="66" height="66" fill="#fbf0b2" stroke="#ffffff" stroke-width="2"/><rect x="130" y="44" width="66" height="66" fill="#fdd3a4" stroke="#ffffff" stroke-width="2"/><rect x="196" y="308" width="66" height="66" fill="#d4ecd0" stroke="#ffffff" stroke-width="2"/><rect x="196" y="242" width="66" height="66" fill="#fbf0b2" stroke="#ffffff" stroke-width="2"/><rect x="196" y="176" width="66" height="66" fill="#fbf0b2" stroke="#ffffff" stroke-width="2"/><rect x="196" y="110" width="66" height="66" fill="#fdd3a4" stroke="#ffffff" stroke-width="2"/><rect x="196" y="44" width="66" height="66" fill="#f2a9a9" stroke="#ffffff" stroke-width="2"/><rect x="262" y="308" width="66" height="66" fill="#d4ecd0" stroke="#ffffff" stroke-width="2"/><rect x="262" y="242" width="66" height="66" fill="#fbf0b2" stroke="#ffffff" stroke-width="2"/><rect x="262" y="176" width="66" height="66" fill="#fdd3a4" stroke="#ffffff" stroke-width="2"/><rect x="262" y="110" width="66" height="66" fill="#f2a9a9" stroke="#ffffff" stroke-width="2"/><rect x="262" y="44" width="66" height="66" fill="#f2a9a9" stroke="#ffffff" stroke-width="2"/><rect x="328" y="308" width="66" height="66" fill="#fbf0b2" stroke="#ffffff" stroke-width="2"/><rect x="328" y="242" width="66" height="66" fill="#fdd3a4" stroke="#ffffff" stroke-width="2"/><rect x="328" y="176" width="66" height="66" fill="#f2a9a9" stroke="#ffffff" stroke-width="2"/><rect x="328" y="110" width="66" height="66" fill="#f2a9a9" stroke="#ffffff" stroke-width="2"/><rect x="328" y="44" width="66" height="66" fill="#f2a9a9" stroke="#ffffff" stroke-width="2"/><text x="97.0" y="390" text-anchor="middle" font-size="12">1</text><text x="54" y="345.0" text-anchor="end" font-size="12">1</text><text x="163.0" y="390" text-anchor="middle" font-size="12">2</text><text x="54" y="279.0" text-anchor="end" font-size="12">2</text><text x="229.0" y="390" text-anchor="middle" font-size="12">3</text><text x="54" y="213.0" text-anchor="end" font-size="12">3</text><text x="295.0" y="390" text-anchor="middle" font-size="12">4</text><text x="54" y="147.0" text-anchor="end" font-size="12">4</text><text x="361.0" y="390" text-anchor="middle" font-size="12">5</text><text x="54" y="81.0" text-anchor="end" font-size="12">5</text><text x="229.0" y="408" text-anchor="middle" font-size="12">Vraisemblance</text><text transform="translate(14 209.0) rotate(-90)" text-anchor="middle" font-size="12">Impact</text><g><title>R1 : Compromission de l'accès distant (VPN)</title><circle cx="284" cy="70" r="10" fill="#ffffff" stroke="#333333"/><text x="284" y="73.5" text-anchor="middle" font-size="9" font-weight="bold">R1</text></g><g><title>R2 : Extraction massive de données non détectée</title><circle cx="305" cy="70" r="10" fill="#ffffff" stroke="#333333"/><text x="305" y="73.5" text-anchor="middle" font-size="9" font-weight="bold">R2</text></g><g><title>R6 : Réutilisation des données volées (hameçonnage, fraude)</title><circle cx="326" cy="70" r="10" fill="#ffffff" stroke="#333333"/><text x="326" y="73.5" text-anchor="middle" font-size="9" font-weight="bold">R6</text></g><g><title>R3 : Comptes de l'outil de gestion exposés (stockage faible des mots de passe)</title><circle cx="218" cy="136" r="10" fill="#ffffff" stroke="#333333"/><text x="218" y="139.5" text-anchor="middle" font-size="9" font-weight="bold">R3</text></g><g><title>R4 : Données d'anciens abonnés conservées trop longtemps</title><circle cx="350" cy="202" r="10" fill="#ffffff" stroke="#333333"/><text x="350" y="205.5" text-anchor="middle" font-size="9" font-weight="bold">R4</text></g><g><title>R5 : Information insuffisante des personnes concernées</title><circle cx="284" cy="202" r="10" fill="#ffffff" stroke="#333333"/><text x="284" y="205.5" text-anchor="middle" font-size="9" font-weight="bold">R5</text></g><text x="639.0" y="22" text-anchor="middle" font-weight="bold" font-size="14">Après traitement</text><rect x="474" y="308" width="66" height="66" fill="#d4ecd0" stroke="#ffffff" stroke-width="2"/><rect x="474" y="242" width="66" height="66" fill="#d4ecd0" stroke="#ffffff" stroke-width="2"/><rect x="474" y="176" width="66" height="66" fill="#d4ecd0" stroke="#ffffff" stroke-width="2"/><rect x="474" y="110" width="66" height="66" fill="#d4ecd0" stroke="#ffffff" stroke-width="2"/><rect x="474" y="44" width="66" height="66" fill="#fbf0b2" stroke="#ffffff" stroke-width="2"/><rect x="540" y="308" width="66" height="66" fill="#d4ecd0" stroke="#ffffff" stroke-width="2"/><rect x="540" y="242" width="66" height="66" fill="#d4ecd0" stroke="#ffffff" stroke-width="2"/><rect x="540" y="176" width="66" height="66" fill="#fbf0b2" stroke="#ffffff" stroke-width="2"/><rect x="540" y="110" width="66" height="66" fill="#fbf0b2" stroke="#ffffff" stroke-width="2"/><rect x="540" y="44" width="66" height="66" fill="#fdd3a4" stroke="#ffffff" stroke-width="2"/><rect x="606" y="308" width="66" height="66" fill="#d4ecd0" stroke="#ffffff" stroke-width="2"/><rect x="606" y="242" width="66" height="66" fill="#fbf0b2" stroke="#ffffff" stroke-width="2"/><rect x="606" y="176" width="66" height="66" fill="#fbf0b2" stroke="#ffffff" stroke-width="2"/><rect x="606" y="110" width="66" height="66" fill="#fdd3a4" stroke="#ffffff" stroke-width="2"/><rect x="606" y="44" width="66" height="66" fill="#f2a9a9" stroke="#ffffff" stroke-width="2"/><rect x="672" y="308" width="66" height="66" fill="#d4ecd0" stroke="#ffffff" stroke-width="2"/><rect x="672" y="242" width="66" height="66" fill="#fbf0b2" stroke="#ffffff" stroke-width="2"/><rect x="672" y="176" width="66" height="66" fill="#fdd3a4" stroke="#ffffff" stroke-width="2"/><rect x="672" y="110" width="66" height="66" fill="#f2a9a9" stroke="#ffffff" stroke-width="2"/><rect x="672" y="44" width="66" height="66" fill="#f2a9a9" stroke="#ffffff" stroke-width="2"/><rect x="738" y="308" width="66" height="66" fill="#fbf0b2" stroke="#ffffff" stroke-width="2"/><rect x="738" y="242" width="66" height="66" fill="#fdd3a4" stroke="#ffffff" stroke-width="2"/><rect x="738" y="176" width="66" height="66" fill="#f2a9a9" stroke="#ffffff" stroke-width="2"/><rect x="738" y="110" width="66" height="66" fill="#f2a9a9" stroke="#ffffff" stroke-width="2"/><rect x="738" y="44" width="66" height="66" fill="#f2a9a9" stroke="#ffffff" stroke-width="2"/><text x="507.0" y="390" text-anchor="middle" font-size="12">1</text><text x="464" y="345.0" text-anchor="end" font-size="12">1</text><text x="573.0" y="390" text-anchor="middle" font-size="12">2</text><text x="464" y="279.0" text-anchor="end" font-size="12">2</text><text x="639.0" y="390" text-anchor="middle" font-size="12">3</text><text x="464" y="213.0" text-anchor="end" font-size="12">3</text><text x="705.0" y="390" text-anchor="middle" font-size="12">4</text><text x="464" y="147.0" text-anchor="end" font-size="12">4</text><text x="771.0" y="390" text-anchor="middle" font-size="12">5</text><text x="464" y="81.0" text-anchor="end" font-size="12">5</text><text x="639.0" y="408" text-anchor="middle" font-size="12">Vraisemblance</text><text transform="translate(424 209.0) rotate(-90)" text-anchor="middle" font-size="12">Impact</text><g><title>R1 : Compromission de l'accès distant (VPN)</title><circle cx="562" cy="136" r="10" fill="#ffffff" stroke="#333333"/><text x="562" y="139.5" text-anchor="middle" font-size="9" font-weight="bold">R1</text></g><g><title>R2 : Extraction massive de données non détectée</title><circle cx="583" cy="136" r="10" fill="#ffffff" stroke="#333333"/><text x="583" y="139.5" text-anchor="middle" font-size="9" font-weight="bold">R2</text></g><g><title>R3 : Comptes de l'outil de gestion exposés (stockage faible des mots de passe)</title><circle cx="496" cy="136" r="10" fill="#ffffff" stroke="#333333"/><text x="496" y="139.5" text-anchor="middle" font-size="9" font-weight="bold">R3</text></g><g><title>R4 : Données d'anciens abonnés conservées trop longtemps</title><circle cx="496" cy="202" r="10" fill="#ffffff" stroke="#333333"/><text x="496" y="205.5" text-anchor="middle" font-size="9" font-weight="bold">R4</text></g><g><title>R5 : Information insuffisante des personnes concernées</title><circle cx="517" cy="202" r="10" fill="#ffffff" stroke="#333333"/><text x="517" y="205.5" text-anchor="middle" font-size="9" font-weight="bold">R5</text></g><g><title>R6 : Réutilisation des données volées (hameçonnage, fraude)</title><circle cx="628" cy="136" r="10" fill="#ffffff" stroke="#333333"/><text x="628" y="139.5" text-anchor="middle" font-size="9" font-weight="bold">R6</text></g></svg>
